<svg xmlns="http://www.w3.org/2000/svg" height="800" width="1200" viewBox="-14.19099 -16.55575 122.98858 99.3345"><path d="M85.1926 0H9.5073C4.3063 0 0 4.1132 0 9.43v47.2632C0 62.01 4.3063 66.223 9.5073 66.223h75.6853c5.1077 0 9.414-4.213 9.414-9.5298V9.43c0-5.317-4.3063-9.43-9.414-9.43" fill="#e30613"/><path d="M87.6966 56.6932c0 1.5062-.9977 2.7131-2.504 2.7131H9.5073c-1.4998 0-2.6005-1.2069-2.6005-2.7131V9.43c0-1.5063 1.1007-2.71 2.6005-2.71h75.6853c1.5063 0 2.504 1.2037 2.504 2.71" fill="#fff"/><path d="M67.5748 54.7879H50.7583V11.4352h17.6179c8.31 0 12.8159 3.4116 12.8159 11.5414 0 4.2162-3.5081 7.2254-7.3059 9.1308 5.304 1.4998 8.9087 4.7214 8.9087 10.1317 0 8.8314-7.4121 12.5488-15.2201 12.5488M61.067 28.596h3.6079c3.4019 0 5.9058-1.503 5.9058-5.2203 0-4.1132-3.2088-5.2204-6.6075-5.2204H61.067zm10.711 13.4403c0-4.4125-2.8-5.4167-6.9036-5.4167H61.067V47.762h3.7076c3.7077 0 7.0034-1.207 7.0034-5.7257M28.934 54.7879H13.0155V11.4352H28.934c11.213 0 17.2155 7.0259 17.2155 21.4736 0 12.5455-4.0038 21.7728-17.2155 21.879m6.91-20.9779c0-8.7284-.9076-15.5516-10.312-15.5516h-2.108V47.762h3.7044c5.5068 0 8.7156-4.4158 8.7156-13.952" fill="#e30613"/></svg>